:FULLY-SPECIFIED
:FORCE-ALL-JOINTS-BE-3DOF
:DEGREES
1631
root -9.86949 15.2755 21.2807 753.943 -86.1064 324.453
lfemur -16.4887 -0.731696 -17.3969
ltibia 54.2703 0 0
lfoot -24.9527 19.6342 0
ltoes -38.2846 0 0
rfemur -51.8368 -6.35185 10.5705
rtibia 46.9099 0 0
rfoot -4.10535 -5.31954 0
rtoes -0.762483 0 0
lowerback 17.7757 -1.09013 -8.66208
upperback 0.0347805 -2.89286 4.1564
thorax -9.37809 -0.894269 10.3297
lowerneck 2.02314 -12.0163 -12.3255
upperneck 0.546279 -16.357 12.3151
head 2.40285 -8.46791 5.31282
lclavicle 4.18083e-15 -2.67074e-14 0
lhumerus -11.9808 -46.4108 93.135
lradius 76.3452 0 0
lwrist 16.0722 0 0
lhand -20.1427 41.2309 0
lfingers 7.12502 0 0
lthumb 6.19909 71.0173 0
rclavicle 4.18083e-15 -2.67074e-14 0
rhumerus 28.7919 18.9469 -45.348
rradius 113.298 0 0
rwrist -33.9812 0 0
rhand 46.398 -25.4507 0
rfingers 7.12502 0 0
rthumb 61.5589 -3.55278 0
1632
root -9.86378 15.2702 21.3089 755.021 -86.1449 323.463
lfemur -16.6481 -0.732964 -17.4171
ltibia 54.4581 0 0
lfoot -25.023 19.7473 0
ltoes -38.2509 0 0
rfemur -51.8384 -6.38735 10.665
rtibia 46.7705 0 0
rfoot -4.2058 -5.60654 0
rtoes -0.640071 0 0
lowerback 17.7906 -1.09478 -8.63426
upperback 0.0612667 -2.89402 4.17237
thorax -9.35627 -0.898819 10.3317
lowerneck 2.14059 -12.1076 -12.3955
upperneck 0.400074 -16.4904 12.4849
head 2.37544 -8.53874 5.37146
lclavicle 4.58401e-15 -2.74116e-14 0
lhumerus -12.1176 -46.474 93.0942
lradius 76.6691 0 0
lwrist 16.4332 0 0
lhand -20.0022 41.2356 0
lfingers 7.12502 0 0
lthumb 6.33464 71.0178 0
rclavicle 4.58401e-15 -2.74116e-14 0
rhumerus 29.2996 19.0005 -44.833
rradius 113.135 0 0
rwrist -33.8668 0 0
rhand 45.8334 -25.5593 0
rfingers 7.12502 0 0
rthumb 61.1818 -4.57392 0
1633
root -9.85791 15.2648 21.3372 756.095 -86.1822 322.476
lfemur -16.8083 -0.733614 -17.4369
ltibia 54.6465 0 0
lfoot -25.0932 19.8608 0
ltoes -38.2161 0 0
rfemur -51.8393 -6.42302 10.7599
rtibia 46.6315 0 0
rfoot -4.30667 -5.89443 0
rtoes -0.518506 0 0
lowerback 17.8054 -1.09941 -8.6061
upperback 0.0877525 -2.89508 4.18835
thorax -9.33443 -0.903341 10.3335
lowerneck 2.258 -12.1986 -12.4651
upperneck 0.253669 -16.6232 12.6543
head 2.34796 -8.60937 5.42998
lclavicle 4.98566e-15 -2.81149e-14 0
lhumerus -12.2545 -46.5357 93.0529
lradius 76.9928 0 0
lwrist 16.7933 0 0
lhand -19.8618 41.2404 0
lfingers 7.12502 0 0
lthumb 6.47015 71.0186 0
rclavicle 4.98566e-15 -2.81149e-14 0
rhumerus 29.8054 19.0542 -44.3188
rradius 112.973 0 0
rwrist -33.7532 0 0
rhand 45.2668 -25.6684 0
rfingers 7.12502 0 0
rthumb 60.8033 -5.59804 0
1634
root -9.85188 15.2595 21.3654 757.165 -86.2182 321.494
lfemur -16.9694 -0.733665 -17.4564
ltibia 54.8355 0 0
lfoot -25.1631 19.9746 0
ltoes -38.1803 0 0
rfemur -51.8397 -6.45884 10.8549
rtibia 46.4928 0 0
rfoot -4.4079 -6.18309 0
rtoes -0.397798 0 0
lowerback 17.8201 -1.10401 -8.57759
upperback 0.11423 -2.89604 4.20434
thorax -9.31256 -0.907834 10.3351
lowerneck 2.37533 -12.2892 -12.5344
upperneck 0.10712 -16.7557 12.8235
head 2.32041 -8.67977 5.48835
lclavicle 5.38572e-15 -2.88173e-14 0
lhumerus -12.3914 -46.5958 93.011
lradius 77.3161 0 0
lwrist 17.1524 0 0
lhand -19.7215 41.2453 0
lfingers 7.12502 0 0
lthumb 6.60559 71.0194 0
rclavicle 5.38572e-15 -2.88173e-14 0
rhumerus 30.3092 19.1081 -43.8054
rradius 112.809 0 0
rwrist -33.6403 0 0
rhand 44.6985 -25.7777 0
rfingers 7.12502 0 0
rthumb 60.4234 -6.6247 0
1635
root -9.8457 15.2542 21.3936 758.232 -86.253 320.516
lfemur -17.1311 -0.733138 -17.4756
ltibia 55.025 0 0
lfoot -25.2329 20.0888 0
ltoes -38.1436 0 0
rfemur -51.8394 -6.49479 10.9501
rtibia 46.3545 0 0
rfoot -4.50945 -6.47237 0
rtoes -0.277956 0 0
lowerback 17.8348 -1.10858 -8.54878
upperback 0.14069 -2.89691 4.22034
thorax -9.29069 -0.9123 10.3365
lowerneck 2.49254 -12.3795 -12.6035
upperneck -0.0395175 -16.8876 12.9922
head 2.2928 -8.74993 5.54656
lclavicle 5.78413e-15 -2.95183e-14 0
lhumerus -12.5284 -46.6545 92.9687
lradius 77.6391 0 0
lwrist 17.5105 0 0
lhand -19.5813 41.2504 0
lfingers 7.12502 0 0
lthumb 6.74092 71.0204 0
rclavicle 5.78413e-15 -2.95183e-14 0
rhumerus 30.8108 19.1622 -43.2931
rradius 112.646 0 0
rwrist -33.5282 0 0
rhand 44.1288 -25.8874 0
rfingers 7.12502 0 0
rthumb 60.0425 -7.65343 0
1636
root -9.83939 15.2489 21.4217 759.295 -86.2867 319.542
lfemur -17.2935 -0.732053 -17.4945
ltibia 55.2149 0 0
lfoot -25.3023 20.2031 0
ltoes -38.1059 0 0
rfemur -51.8387 -6.53086 11.0454
rtibia 46.2166 0 0
rfoot -4.61125 -6.76215 0
rtoes -0.15899 0 0
lowerback 17.8494 -1.11312 -8.51968
upperback 0.167124 -2.89768 4.23632
thorax -9.26882 -0.916737 10.3377
lowerneck 2.6096 -12.4694 -12.6721
upperneck -0.186189 -17.0191 13.1606
head 2.26516 -8.81983 5.6046
lclavicle 6.18083e-15 -3.02178e-14 0
lhumerus -12.6652 -46.7118 92.926
lradius 77.9615 0 0
lwrist 17.8675 0 0
lhand -19.4413 41.2556 0
lfingers 7.12502 0 0
lthumb 6.87611 71.0215 0
rclavicle 6.18083e-15 -3.02178e-14 0
rhumerus 31.3102 19.2164 -42.7818
rradius 112.482 0 0
rwrist -33.4169 0 0
rhand 43.5578 -25.9973 0
rfingers 7.12502 0 0
rthumb 59.6607 -8.68379 0
1637
root -9.83294 15.2435 21.4499 760.354 -86.3193 318.572
lfemur -17.4563 -0.730429 -17.5132
ltibia 55.4052 0 0
lfoot -25.3715 20.3176 0
ltoes -38.0674 0 0
rfemur -51.8374 -6.56703 11.1409
rtibia 46.0793 0 0
rfoot -4.71326 -7.05229 0
rtoes -0.040912 0 0
lowerback 17.8639 -1.11763 -8.49031
upperback 0.193525 -2.89837 4.25229
thorax -9.24696 -0.921146 10.3387
lowerneck 2.72647 -12.559 -12.7405
upperneck -0.332839 -17.15 13.3284
head 2.23748 -8.88947 5.66245
lclavicle 6.57575e-15 -3.09157e-14 0
lhumerus -12.802 -46.7677 92.8828
lradius 78.2833 0 0
lwrist 18.2233 0 0
lhand -19.3014 41.2609 0
lfingers 7.12502 0 0
lthumb 7.01111 71.0228 0
rclavicle 6.57575e-15 -3.09157e-14 0
rhumerus 31.8074 19.2706 -42.2719
rradius 112.318 0 0
rwrist -33.3065 0 0
rhand 42.986 -26.1073 0
rfingers 7.12502 0 0
rthumb 59.2782 -9.71533 0
